<svg width="222" height="18" viewBox="0 0 222 18" fill="none" xmlns="http://www.w3.org/2000/svg">
<path d="M4.256 4.132V12.916H22.76C23.576 12.916 24.248 12.772 24.776 12.484C25.304 12.172 25.712 11.8 26 11.368C26.312 10.936 26.516 10.468 26.612 9.964C26.732 9.436 26.792 8.956 26.792 8.524C26.792 8.092 26.732 7.624 26.612 7.12C26.516 6.592 26.312 6.112 26 5.68C25.712 5.248 25.304 4.888 24.776 4.6C24.248 4.288 23.576 4.132 22.76 4.132H4.256ZM30.14 8.524C30.14 9.412 29.996 10.312 29.708 11.224C29.42 12.136 29 12.964 28.448 13.708C27.92 14.452 27.272 15.076 26.504 15.58C25.736 16.06 24.86 16.324 23.876 16.372H2.528C2.048 16.372 1.64 16.204 1.304 15.868C0.968 15.532 0.8 15.124 0.8 14.644V2.404C0.8 1.924 0.968 1.516 1.304 1.18C1.64 0.844 2.048 0.676 2.528 0.676H23.516C24.548 0.676 25.472 0.916 26.288 1.396C27.104 1.876 27.8 2.5 28.376 3.268C28.952 4.012 29.384 4.852 29.672 5.788C29.984 6.7 30.14 7.612 30.14 8.524ZM59.4814 6.796C59.9614 6.796 60.3694 6.964 60.7054 7.3C61.0414 7.636 61.2094 8.044 61.2094 8.524C61.2094 9.004 61.0414 9.412 60.7054 9.748C60.3694 10.084 59.9614 10.252 59.4814 10.252H41.5534C41.0734 10.252 40.6654 10.084 40.3294 9.748C39.9934 9.412 39.8254 9.004 39.8254 8.524C39.8254 8.044 39.9934 7.636 40.3294 7.3C40.6654 6.964 41.0734 6.796 41.5534 6.796H59.4814ZM41.1574 4.132C40.3174 4.132 39.6334 4.288 39.1054 4.6C38.6014 4.888 38.1934 5.248 37.8814 5.68C37.5934 6.112 37.3894 6.592 37.2694 7.12C37.1734 7.624 37.1254 8.092 37.1254 8.524C37.1254 8.956 37.1734 9.436 37.2694 9.964C37.3894 10.468 37.5934 10.936 37.8814 11.368C38.1934 11.8 38.6014 12.172 39.1054 12.484C39.6334 12.772 40.3174 12.916 41.1574 12.916H60.9934C61.4734 12.916 61.8814 13.084 62.2174 13.42C62.5534 13.756 62.7214 14.164 62.7214 14.644C62.7214 15.124 62.5534 15.532 62.2174 15.868C61.8814 16.204 61.4734 16.372 60.9934 16.372H40.0054C39.0214 16.372 38.1454 16.132 37.3774 15.652C36.6094 15.172 35.9494 14.56 35.3974 13.816C34.8694 13.048 34.4614 12.196 34.1734 11.26C33.8854 10.324 33.7414 9.412 33.7414 8.524C33.7414 7.612 33.8854 6.7 34.1734 5.788C34.4854 4.852 34.9294 4.012 35.5054 3.268C36.0814 2.5 36.7774 1.876 37.5934 1.396C38.4094 0.916 39.3334 0.676 40.3654 0.676H60.9934C61.4734 0.676 61.8814 0.844 62.2174 1.18C62.5534 1.516 62.7214 1.924 62.7214 2.404C62.7214 2.884 62.5534 3.292 62.2174 3.628C61.8814 3.964 61.4734 4.132 60.9934 4.132H41.1574ZM89.0473 1.324C89.4073 0.892 89.8513 0.676 90.3793 0.676C90.8593 0.676 91.2673 0.844 91.6033 1.18C91.9393 1.516 92.1073 1.924 92.1073 2.404C92.1073 2.836 91.9873 3.184 91.7473 3.448L91.7113 3.484L82.9993 15.22C82.5673 15.772 82.0153 16.228 81.3433 16.588C80.6953 16.924 79.9873 17.092 79.2193 17.092C78.4993 17.092 77.8153 16.936 77.1673 16.624C76.5433 16.312 76.0153 15.88 75.5833 15.328L66.8353 3.628C66.6913 3.46 66.5713 3.28 66.4753 3.088C66.3793 2.872 66.3313 2.644 66.3313 2.404C66.3313 1.924 66.4993 1.516 66.8353 1.18C67.1713 0.844 67.5793 0.676 68.0593 0.676C68.6353 0.676 69.0913 0.904 69.4273 1.36L77.8153 12.556C77.9833 12.748 78.1873 12.964 78.4273 13.204C78.6913 13.42 78.9553 13.528 79.2193 13.528C79.4833 13.528 79.7353 13.42 79.9753 13.204C80.2393 12.964 80.4433 12.748 80.5873 12.556L89.0473 1.324Z" fill="#2F80ED"/>
<path d="M100.51 10.252C99.8379 10.252 99.2139 10.132 98.6379 9.892C98.0619 9.628 97.5579 9.28 97.1259 8.848C96.6939 8.416 96.3459 7.912 96.0819 7.336C95.8419 6.76 95.7219 6.136 95.7219 5.464C95.7219 4.792 95.8419 4.168 96.0819 3.592C96.3459 3.016 96.6939 2.512 97.1259 2.08C97.5579 1.648 98.0619 1.312 98.6379 1.072C99.2139 0.808 99.8379 0.676 100.51 0.676H122.362C122.842 0.676 123.25 0.844 123.586 1.18C123.922 1.516 124.09 1.924 124.09 2.404C124.09 2.884 123.922 3.292 123.586 3.628C123.25 3.964 122.842 4.132 122.362 4.132H100.438C100.078 4.132 99.7539 4.264 99.4659 4.528C99.2019 4.768 99.0699 5.08 99.0699 5.464C99.0699 5.824 99.2019 6.136 99.4659 6.4C99.7539 6.664 100.078 6.796 100.438 6.796H120.346C121.018 6.796 121.642 6.928 122.218 7.192C122.818 7.432 123.334 7.768 123.766 8.2C124.198 8.632 124.534 9.148 124.774 9.748C125.038 10.324 125.17 10.948 125.17 11.62C125.17 12.292 125.038 12.916 124.774 13.492C124.534 14.068 124.198 14.572 123.766 15.004C123.334 15.436 122.818 15.772 122.218 16.012C121.642 16.252 121.018 16.372 120.346 16.372H98.5299C98.0499 16.372 97.6419 16.204 97.3059 15.868C96.9699 15.532 96.8019 15.124 96.8019 14.644C96.8019 14.164 96.9699 13.756 97.3059 13.42C97.6419 13.084 98.0499 12.916 98.5299 12.916H120.49C120.85 12.916 121.162 12.796 121.426 12.556C121.69 12.292 121.822 11.98 121.822 11.62C121.822 11.236 121.69 10.912 121.426 10.648C121.162 10.384 120.85 10.252 120.49 10.252H100.51ZM156.921 14.644C156.921 15.124 156.753 15.532 156.417 15.868C156.081 16.204 155.673 16.372 155.193 16.372C154.713 16.372 154.305 16.204 153.969 15.868C153.633 15.532 153.465 15.124 153.465 14.644V13.816C153.441 13.096 153.273 12.508 152.961 12.052C152.649 11.572 152.277 11.2 151.845 10.936C151.413 10.672 150.945 10.492 150.441 10.396C149.937 10.3 149.481 10.252 149.073 10.252H142.953H142.845H142.701H136.581C135.837 10.252 135.081 10.156 134.313 9.964C133.569 9.772 132.861 9.484 132.189 9.1V14.644C132.189 15.124 132.021 15.532 131.685 15.868C131.349 16.204 130.941 16.372 130.461 16.372C129.981 16.372 129.573 16.204 129.237 15.868C128.901 15.532 128.733 15.124 128.733 14.644V2.404C128.733 1.924 128.901 1.516 129.237 1.18C129.573 0.844 129.981 0.676 130.461 0.676C130.941 0.676 131.349 0.844 131.685 1.18C132.021 1.516 132.189 1.924 132.189 2.404V3.016C132.189 3.784 132.333 4.42 132.621 4.924C132.933 5.404 133.305 5.788 133.737 6.076C134.193 6.34 134.673 6.532 135.177 6.652C135.681 6.748 136.149 6.796 136.581 6.796H142.809H142.845H142.953H149.073C149.817 6.796 150.561 6.892 151.305 7.084C152.073 7.276 152.793 7.564 153.465 7.948V2.404C153.465 1.924 153.633 1.516 153.969 1.18C154.305 0.844 154.713 0.676 155.193 0.676C155.673 0.676 156.081 0.844 156.417 1.18C156.753 1.516 156.921 1.924 156.921 2.404V14.644ZM182.474 12.916C183.29 12.916 183.962 12.772 184.49 12.484C185.018 12.172 185.426 11.8 185.714 11.368C186.026 10.936 186.23 10.468 186.326 9.964C186.446 9.436 186.506 8.956 186.506 8.524C186.506 8.092 186.446 7.624 186.326 7.12C186.23 6.592 186.026 6.112 185.714 5.68C185.426 5.248 185.018 4.888 184.49 4.6C183.962 4.288 183.29 4.132 182.474 4.132H167.93C167.09 4.132 166.406 4.288 165.878 4.6C165.374 4.888 164.966 5.248 164.654 5.68C164.366 6.112 164.162 6.592 164.042 7.12C163.946 7.624 163.898 8.092 163.898 8.524C163.898 8.956 163.946 9.436 164.042 9.964C164.162 10.468 164.366 10.936 164.654 11.368C164.966 11.8 165.374 12.172 165.878 12.484C166.406 12.772 167.09 12.916 167.93 12.916H182.474ZM189.854 8.524C189.854 9.436 189.698 10.36 189.386 11.296C189.098 12.208 188.666 13.048 188.09 13.816C187.514 14.56 186.818 15.172 186.002 15.652C185.186 16.132 184.262 16.372 183.23 16.372H166.814C165.83 16.324 164.954 16.06 164.186 15.58C163.418 15.076 162.758 14.452 162.206 13.708C161.678 12.964 161.27 12.136 160.982 11.224C160.694 10.312 160.55 9.412 160.55 8.524C160.55 7.612 160.694 6.7 160.982 5.788C161.294 4.852 161.738 4.012 162.314 3.268C162.89 2.5 163.586 1.876 164.402 1.396C165.218 0.916 166.142 0.676 167.174 0.676H183.59C184.574 0.723999 185.45 0.999999 186.218 1.504C186.986 1.984 187.634 2.596 188.162 3.34C188.714 4.084 189.134 4.912 189.422 5.824C189.71 6.736 189.854 7.636 189.854 8.524ZM196.912 4.132V6.796H216.892C217.252 6.796 217.564 6.676 217.828 6.436C218.116 6.172 218.26 5.848 218.26 5.464C218.26 5.104 218.116 4.792 217.828 4.528C217.564 4.264 217.252 4.132 216.892 4.132H196.912ZM216.748 0.676C217.42 0.676 218.044 0.808 218.62 1.072C219.22 1.312 219.736 1.648 220.168 2.08C220.624 2.512 220.972 3.016 221.212 3.592C221.476 4.168 221.608 4.792 221.608 5.464C221.608 6.136 221.476 6.76 221.212 7.336C220.972 7.912 220.624 8.416 220.168 8.848C219.736 9.28 219.22 9.628 218.62 9.892C218.044 10.132 217.42 10.252 216.748 10.252H196.912V14.644C196.912 15.124 196.732 15.532 196.372 15.868C196.036 16.204 195.64 16.372 195.184 16.372C194.704 16.372 194.296 16.204 193.96 15.868C193.624 15.532 193.456 15.124 193.456 14.644V2.404C193.456 1.924 193.624 1.516 193.96 1.18C194.296 0.844 194.704 0.676 195.184 0.676H216.748Z" fill="#333333"/>
</svg>
